<svg width="32" height="32" viewBox="0 0 32 32" fill="none" xmlns="http://www.w3.org/2000/svg"><path d="M27.4125 9H4.98752C4.71842 9 4.5 9.22397 4.5 9.49997V24.5C4.5 26.43 6.03074 28 7.91252 28H24.4875C26.3693 28 27.9 26.43 27.9 24.5V9.49997C27.9 9.22397 27.6816 9 27.4125 9ZM26.925 24.5C26.925 25.879 25.832 27 24.4875 27H7.91252C6.56798 27 5.47503 25.8789 5.47503 24.5V9.99998H26.925V24.5Z" fill="white"></path><path d="M16.2 4C13.512 4 11.325 6.24302 11.325 9.00002V12.5C11.325 12.776 11.5434 13 11.8125 13C12.0816 13 12.3 12.776 12.3 12.5V9.00002C12.3 6.79403 14.0492 5.00003 16.2 5.00003C18.3509 5.00003 20.1 6.79403 20.1 9.00002V12.5C20.1 12.776 20.3184 13 20.5875 13C20.8566 13 21.0751 12.776 21.0751 12.5V9.00002C21.0751 6.24302 18.8881 4 16.2 4Z" fill="white"></path><path d="M11.8125 12C11.0061 12 10.35 12.673 10.35 13.5C10.35 14.327 11.0061 15 11.8125 15C12.6188 15 13.275 14.327 13.275 13.5C13.275 12.673 12.6188 12 11.8125 12ZM11.8125 14C11.5443 14 11.325 13.775 11.325 13.5C11.325 13.2249 11.5443 12.9999 11.8125 12.9999C12.0806 12.9999 12.3 13.2249 12.3 13.5C12.3 13.775 12.0806 14 11.8125 14Z" fill="white"></path><path d="M20.5875 12C19.7812 12 19.125 12.673 19.125 13.5C19.125 14.327 19.7812 15 20.5875 15C21.3938 15 22.05 14.327 22.05 13.5C22.05 12.673 21.3938 12 20.5875 12ZM20.5875 14C20.3194 14 20.1 13.775 20.1 13.5C20.1 13.2249 20.3194 12.9999 20.5875 12.9999C20.8556 12.9999 21.075 13.2249 21.075 13.5C21.075 13.775 20.8556 14 20.5875 14Z" fill="white"></path></svg>